<svg xmlns="http://www.w3.org/2000/svg" viewBox="0 0 640 640">
    <!-- Font Awesome Free Copyright 2025 Fonticons, Inc.-->
    <path
        d="M464 440c-13.3 0-24 10.7-24 24s10.7 24 24 24 24-10.7 24-24-10.7-24-24-24ZM160 384h46.9l56.5 56.6c31.2 31.2 81.9 31.2 113.1 0L433.1 384H480c35.3 0 64 28.7 64 64v32c0 35.3-28.7 64-64 64H160c-35.3 0-64-28.7-64-64V448c0-35.3 28.7-64 64-64ZM352 96V306.7l41.3-41.4c12.5-12.5 32.8-12.5 45.3 0s12.5 32.8 0 45.3l-96 96c-12.5 12.5-32.8 12.5-45.3 0l-96-96c-12.5-12.5-12.5-32.8 0-45.3s32.8-12.5 45.3 0L288 306.7V96c0-17.7 14.3-32 32-32s32 14.3 32 32Z" />
</svg>
