<svg xmlns="http://www.w3.org/2000/svg" viewBox="0 0 640 640">
    <!-- Font Awesome Free Copyright 2025 Fonticons, Inc.-->
    <path
        d="M232.7 69.9C237.1 56.8 249.3 48 263.1 48H377c13.8 0 26 8.8 30.4 21.9L416 96h96c17.7 0 32 14.3 32 32s-14.3 32-32 32H128c-17.7 0-32-14.3-32-32 0-17.7 14.3-32 32-32h96l8.7-26.1zM128 208H512V512c0 35.3-28.7 64-64 64H192c-35.3 0-64-28.7-64-64V208zm88 64c-13.3 0-24 10.7-24 24V488c0 13.3 10.7 24 24 24s24-10.7 24-24V296c0-13.3-10.7-24-24-24zm104 0c-13.3 0-24 10.7-24 24V488c0 13.3 10.7 24 24 24s24-10.7 24-24V296c0-13.3-10.7-24-24-24zm104 0c-13.3 0-24 10.7-24 24V488c0 13.3 10.7 24 24 24s24-10.7 24-24V296c0-13.3-10.7-24-24-24z" />
</svg>
